# xmcd
#
# Track frame offsets:
#	150
#	18457
#	34620
#	49650
#	57922
#	75612
#	96129
#	109715
#	131495
#	145300
#	162712
#	179480
#	198832
#	221750
#	245832
#	268400
#	284955
#
# Disc length: 3977 seconds
#
# Revision: 3
# Processed by: cddbd v1.5.2PL0 Copyright (c) Steve Scherf et al.
# Submitted via: audiograbber 1.83.01
#
DISCID=0b0f8711
DTITLE=Various Artist - Scotland. Tunes From The Lowlands, Highlands and Islands
DYEAR=1900
DGENRE=Celtic
TTITLE0=Catriona MacDonald and Ian Lowthian - Tuddal Troll
TTITLE1=Catriona MacDonald and Ian Lowthian - Christmas Day Ida Moarnin' - Myra's
TTITLE1=Jig - Da Scallowa Lasses
TTITLE2=Catherine-Ann MacPhee - A Nighean Nan Geúg (Girl Of The Branches - Lulla
TTITLE2=by)
TTITLE3=Catherine-Ann MacPhee - S'Flinch An Oidche Wet Is The Night - Waulking S
TTITLE3=ong)
TTITLE4=Phil Cunningham - Jackson's Set
TTITLE5=Dick Gaughan - Bonnie Jeanie
TTITLE6=Dick Gaughan - Such A Parcel Of Rogues In A Nation
TTITLE7=Sileas - The Dusty Windmill
TTITLE8=Sileas - Buain A Choice - Laill Leathag (Waulking Song)
TTITLE9=Aly Bain - Crossing The Minch - Laird Of Drumblair - Fairly Dance
TTITLE10=Ishbel MacAskill - Come With Me, My Mairi
TTITLE11=Ishbel MacAskill - The Love Of My Heart
TTITLE12=Urbn Ri - Thae Braes - Over To Uist - Skylarks Ascension - Loch Ness Mons
TTITLE12=ter
TTITLE13=The Poozies - We Build Fires
TTITLE14=The Poozies - The Mountaineers Set
TTITLE15=Ceolbeg - Sleeping Tune
TTITLE16=Ceolbeg - Zito The Bubbleman
EXTD=
EXTT0=Catriona MacDonald and Ian Lowthian
EXTT1=Catriona MacDonald and Ian Lowthian
EXTT2=Catherine-Ann MacPhee
EXTT3=Catherine-Ann MacPhee
EXTT4=Phil Cunningham
EXTT5=Dick Gaugham
EXTT6=Dick Gaugham
EXTT7=Sileas
EXTT8=Sileas
EXTT9=Aly Bain
EXTT10=Ishbel MacAskill
EXTT11=Ishbel MacAskill
EXTT12=Urbn Ri
EXTT13=The Poozies
EXTT14=The Poozies
EXTT15=Ceolberg
EXTT16=Ceolberg
PLAYORDER=
